/* XPM */
static char *result[] = {
/* columns rows colors chars-per-pixel */
"35 43 130 2 ",
"   c gray17",
".  c #2C2C2C",
"X  c #2D2D2D",
"o  c gray18",
"O  c #2F2F2F",
"+  c gray19",
"@  c #313131",
"#  c #323232",
"$  c gray20",
"%  c #353331",
"&  c #353535",
"*  c gray21",
"=  c #373737",
"-  c #3E3A34",
";  c gray22",
":  c #393939",
">  c gray23",
",  c #3C3C3C",
"<  c gray24",
"1  c #3E3E3E",
"2  c #3F3F3F",
"3  c #51473E",
"4  c #52493E",
"5  c #414141",
"6  c #494949",
"7  c gray31",
"8  c #594C40",
"9  c #594E43",
"0  c #58524D",
"q  c #5D554E",
"w  c gray32",
"e  c #5B5B5B",
"r  c #68594B",
"t  c #6F5E4E",
"y  c #645B53",
"u  c #6A6055",
"i  c #776452",
"p  c #7E6955",
"a  c #706459",
"s  c #7D6D5D",
"d  c #7C6D5F",
"f  c gray39",
"g  c #6C6C6C",
"h  c gray46",
"j  c #856F59",
"k  c #92765D",
"l  c #887665",
"z  c #977C60",
"x  c #9A7D61",
"c  c #9B7F64",
"v  c #9D7F64",
"b  c #9F8065",
"n  c #9F8366",
"m  c #A08266",
"M  c #A18366",
"N  c #A18367",
"B  c #A28366",
"V  c #A18466",
"C  c #A38568",
"Z  c #A7886A",
"A  c #A8896B",
"S  c #AE8E6F",
"D  c #A08872",
"F  c #AE9277",
"G  c #AB9178",
"H  c #B49373",
"J  c #B79575",
"K  c #B89776",
"L  c #BA9776",
"P  c #B79A7E",
"I  c #BD9C7B",
"U  c #BF9C7A",
"Y  c #C5A17E",
"T  c #848484",
"R  c #868686",
"E  c gray56",
"W  c gray60",
"Q  c #9A9A9A",
"!  c #9B9B9B",
"~  c #A0A0A0",
"^  c #A2A2A2",
"/  c gray64",
"(  c gray66",
")  c #A9A9A9",
"_  c #AAAAAA",
"`  c #B1B1B1",
"'  c #B2B2B2",
"]  c #B4B4B4",
"[  c #B6B6B6",
"{  c gray73",
"}  c #BBBBBB",
"|  c gray74",
" . c #C3A384",
".. c #CBA581",
"X. c #CCA682",
"o. c #CFAC8A",
"O. c #D4AC87",
"+. c #D6AF89",
"@. c #DCB38C",
"#. c #DDB48D",
"$. c #DBB590",
"%. c #E2B890",
"&. c #E7BE96",
"*. c #E8BD94",
"=. c #EDC097",
"-. c #EDC197",
";. c #F2C59A",
":. c #F3C69B",
">. c #F3C79C",
",. c #F9CB9F",
"<. c #DBCDBF",
"1. c #DFCDBC",
"2. c #EFCEAF",
"3. c #FBCFA5",
"4. c #F5CFAA",
"5. c #F2CFAD",
"6. c #F8CFA8",
"7. c #FFD0A3",
"8. c #E5CEB7",
"9. c #EBCEB2",
"0. c #E8CEB4",
"q. c #E2CDBA",
"w. c #C3C3C3",
"e. c gray78",
"r. c #CFCCC9",
"t. c gray80",
"y. c #D2CCC6",
"u. c #D5CCC4",
"i. c #D8CDC1",
"p. c None",
/* pixels */
"p.p.p.p.p.p.p.p.p.p.X . . o o o . . X p.p.p.p.p.p.p.p.p.p.p.p.p.p.p.p.",
"p.p.p.p.p.p.p.p.X X o o o o o o o o o o o . . X p.p.p.p.p.p.p.p.p.p.p.",
"p.p.p.p.p.p.p.p.o o & , , 5 5 5 , , & O o o o o o o o .   p.p.p.p.p.p.",
"p.p.p.p.p.p.p.o o , 5 5 5 5 5 5 5 5 5 ; o o & = $ + o o o 4 p.p.p.p.p.",
"p.p.p.p.p.p.o o : 5 5 5 5 5 5 5 5 5 5 5 & o O 5 5 5 5 * 9 C M B p.p.p.",
"p.p.p.p.p.p.o @ 5 5 5 5 5 5 5 5 5 5 5 5 5 + o > 5 5 5 q ..L C C C N p.",
"p.p.p.p.p.p.o * 5 5 5 5 5 5 5 5 5 5 5 5 5 * o = 5 5 5 a 7.7.7.%.A C p.",
"p.p.p.p.p.p.o = 5 5 5 5 5 5 5 5 5 5 5 5 5 = o & 5 5 5 l 7.7.7.7.%.C N ",
"p.p.p.p.p.. o > 5 5 5 5 5 5 5 5 5 5 5 5 5 , o @ 5 5 5 G 7.7.7.7.*.C N ",
"p.p.p.p.p.. o , 5 5 5 5 5 5 5 5 5 5 5 5 5 2 o o 5 5 5 $.7.7.7.7.+.C p.",
"p.p.p.p.p.o o 2 5 5 5 5 5 5 5 5 5 5 5 5 5 5 o o < 5 0 7.7.7.7.7.S C p.",
"p.p.p.p.p.o o 5 5 5 5 5 e f f g R a 0 5 5 5 # o : 5 G 7.7.7.7.-.C M p.",
"p.p.p.p.p.o @ 5 5 e E { t.t.t.t.t.7.7.o.a 5 & o = , I *.,.7.7.U C B p.",
"p.p.p.p.p.o # 6 ~ t.t.t.t.t.t.t.y.7.7.7.7. .= o o o i C C C C C C p.p.",
"p.p.p.p.7 & * ~ t.t.t.t.t.t.t.t.5.7.7.7.7.7.F r c - 3 v C C C M p.p.p.",
"p.p.p.p._ ^ ) t.t.t.t.y.i.i.q.6.7.7.7.7.7.7.7.Y C z p.p.p.p.p.p.p.p.p.",
"p.p.p.~ _ ] t.r.q.3.7.7.7.7.7.7.7.7.7.7.7.7.7.7.S C p.p.p.p.p.p.p.p.p.",
"p.p.p._ _ e.t.2.7.7.7.7.7.7.7.7.7.7.7.7.7.7.7.7.@.C x p.p.p.p.p.p.p.p.",
"p.p.p._ [ t.0.7.7.7.7.7.7.7.7.7.7.4.7.7.7.7.7.7.7.Z C v p.p.p.p.p.p.p.",
"p.p.~ _ | y.7.7.7.7.7.7.7.7.7.8.y.t.2.7.7.7.7.7.7.#.Z C k p.p.p.p.p.p.",
"p.p./ _ w.q.7.7.7.7.7.7.7.3.u.t.t.t.6.7.7.7.7.7.7.=.X.C b p.p.p.p.p.p.",
"p.p./ _ w.8.7.7.7.7.7.7.7.8.t.t.t.1.7.7.7.7.7.7.7.;.O.C n p.p.p.p.p.p.",
"p.p./ _ w.8.7.7.7.7.7.7.7.0.t.t.t.r.6.7.7.7.7.7.7.;.J C x p.p.p.p.p.p.",
"p.p./ _ w.1.7.7.7.7.7.7.7.7.1.t.t.t.u.7.7.7.7.7.7.X.C C p.p.p.p.p.p.p.",
"p.p.! _ } r.7.7.7.7.7.7.7.7.7.6.0.<.i.3.7.7.7.7.7.H C p.p.p.p.p.p.p.p.",
"p.p.p._ ' t.9.7.7.7.7.7.7.7.7.7.7.7.7.7.7.7.7.7.:.C C p.p.p.p.p.p.p.p.",
"p.p.p.( _ w.r.4.7.7.7.7.7.7.7.7.7.7.7.7.7.7.7.7.@.C z p.p.p.p.p.p.p.p.",
"p.p.p.W _ ' t.r.1.3.7.7.7.7.7.7.7.7.7.7.7.7.7.,.A C p.p.p.p.p.p.p.p.p.",
"p.p.p.p.( Q T t.t.t.t.y.i.i.q.4.7.7.7.7.7.7.7.U C x p.p.p.p.p.p.p.p.p.",
"p.p.p.p.p.& $ h { t.t.t.t.t.t.t.9.7.7.7.7.>.s 9 j % 8 x C C C C m p.p.",
"p.p.p.p.p.o # 5 6 ~ t.t.t.t.t.t.t.3.7.7.&.a = o o o p C C C C C C p.p.",
"p.p.p.p.p.o O 5 5 5 w E ` t.t.t.t.5.$.l 5 5 $ o = > K @.:.7.7.+.C B p.",
"p.p.p.p.p.o o 5 5 5 5 5 5 5 5 5 5 5 5 5 5 5 + o , 5 P 7.7.7.7.-.C M p.",
"p.p.p.p.p.  o < 5 5 5 5 5 5 5 5 5 5 5 5 5 5 o o 2 5 y 7.7.7.7.7.S C p.",
"p.p.p.p.p.. o , 5 5 5 5 5 5 5 5 5 5 5 5 5 , o @ 5 5 5 $.7.7.7.7...C p.",
"p.p.p.p.p.X o ; 5 5 5 5 5 5 5 5 5 5 5 5 5 ; o $ 5 5 5 D 7.7.7.7.*.C B ",
"p.p.p.p.p.p.o * 5 5 5 5 5 5 5 5 5 5 5 5 5 * o = 5 5 5 d 7.7.7.7.%.C N ",
"p.p.p.p.p.p.o @ 5 5 5 5 5 5 5 5 5 5 5 5 5 + o > 5 5 5 a 7.7.7.%.A C m ",
"p.p.p.p.p.p.o o : 5 5 5 5 5 5 5 5 5 5 5 ; o O 5 5 5 5 u @.Y A C C V p.",
"p.p.p.p.p.p.p.o O < 5 5 5 5 5 5 5 5 5 : o o ; 5 5 5 5 > t C C N p.p.p.",
"p.p.p.p.p.p.p.  o o & 2 5 5 5 5 5 1 & o o @ > = = # # o o 4 p.p.p.p.p.",
"p.p.p.p.p.p.p.p.p.o o o o o o o o o o o o o o o o o o o X p.p.p.p.p.p.",
"p.p.p.p.p.p.p.p.p.p.X o o o o o o o o . . . . X p.p.p.p.p.p.p.p.p.p.p."
};
