/* XPM */
static char *result[] = {
/* columns rows colors chars-per-pixel */
"64 64 30 1 ",
"  c #CD7945",
". c #CE7945",
"X c #CF7A45",
"o c #CF7A46",
"O c #D07A46",
"+ c #D17B46",
"@ c #D17B47",
"# c #D27C47",
"$ c #D37C47",
"% c #D37C48",
"& c #D47D48",
"* c #D57D48",
"= c #D57D49",
"- c #D67E49",
"; c #D77E49",
": c #D87F4A",
"> c #D97F4A",
", c #D9804A",
"< c #DA804A",
"1 c #DB804A",
"2 c #DB814B",
"3 c #DC814B",
"4 c #DD824B",
"5 c #DE824B",
"6 c #DE834C",
"7 c #DF834C",
"8 c #E0834C",
"9 c #E0844C",
"0 c #E1844C",
"q c #E2854D",
/* pixels */
"::::::::::::::::::::::::::::::::::::::::::::::::::::::::::::::::",
"::::::::::::::::::::::::::::::::::::::::::::::::::::::::::::::::",
"::::::::::::::::::::::::::::::::::::::::::::::::::::::::::::::::",
"::::::::::::::::::::::::::::::::::::::::::::::::::::::::::::::::",
"::::::::::::::::::::::::::::::::::::::::::::::::::::::::::::::::",
"::::::::::::::::::::::::::::::::::::::::::::::::::::::::::::::::",
"::::::::::::::::::::::::::::::::::::::::::::::::::::::::::::::::",
"::::::::::::::::::::::::::::::::::::::::::::::::::::::::::::::::",
":::::::::::::::::::::::::::::::::::::oo@#$**::::::::::::::::::::",
"::::::::::::::::::::::::::::::::::::*       ::::::::::::::::::::",
"::::::::::::::::::::::::::::::::::::&      o::::::::::::::::::::",
"::::::::::::::::::::::::::::::::::::#      o::::::::::::::::::::",
"::::::::::::::::::::::::::::::::::::+      @::::::::::::::::::::",
"::::::::::::::::::::::::::::::::::::o      #::::::::::::::::::::",
"::::::::::::::::::::::::::::::::::::       $::::::::::::::::::::",
"::::::::::::::::::::::::::::479q5:::**%#@oo=::::::::::::::::::::",
"::::::::::::::::::::::::::::4qqq7:::::::::::::::::::::::::::::::",
"::::::::::::::::::::::::::::3qqqq:::::::::::::::::::::::::::::::",
"::::::::::::::::::::::::::::<qqqq>::::::::::::::::::::::::::::::",
":::::::::::::::::::::::::::::753<:::::::::::::::::::::::::::::::",
"::::::::::::::::::::::::::::::::::::::::::::::::::::::::::::::::",
"::::::::::::::::::::::::::::::::::::::::::::::::::::::::::::::::",
"::::::::::::::::::::::::::::::::::::::::::::::::::::::::::::::::",
"::::::::::::::::::::::::::::::::::::::::::::::::::::::::::::::::",
"::::::::::::::::::::::::::::::::::::::::::::::::::::::::::::::::",
"::::::::::::::::::::::::::::::::::::::::::::::::::::::::::::::::",
"::::::::::::::::::::::::::::::::::::::::::::::::::::::::::*:::::",
":::::::::::::::::::-*=::::::::::::::::::::::::::::::::-@o  *::::",
":::::::::::::::::    X:::::::::::::::::::::::::::::::::    @::::",
":::::::::::::::::X    :::::::::::::::::::::::::::::::::O   .::::",
":::::::::::::::::o    :::::::::::::::::::::::::::::::::$    -:::",
":::::::::::::::::+    *::::::::::::::::::::::::::::::::= O%-::::",
":::::::::::::::::*##**;:::::::::::::::::::::::::24<>::::::::::::",
":::=*-::::::::::::::::::::::::::::::::::::::::::0qq3::::::::::::",
":::X #::::::::::::::::::::::::::::::::::::::::::qqq<::%#%*=:::::",
":::  *:::::::::::::::::::::::::::::::::::::::::,777:::.      :::",
"::::::::::::::::::::::::::::::::::::::::::::::::::::::      X:::",
":::::::::::<qq87644>:::*#+o@:::::::::::::::::::::::::;      o:::",
":::::::::::4qqqqqqq>:::&    :::::::::::::::::::::::::*      @:::",
":::::::::::4qqqqqqq::::=    :::::::::::::::::::::::::&      #:::",
":::::::::::4qqqqqq9:::::    =::::::::::::::::::::::::#      %:::",
":::::::::::7qqqqqq7:::::++#*;::::::::::::::::::::::::::;**##-:::",
":::::::::::7qqqqqq4:::::::::::::::::::::::::::::::::::::::::::::",
":::::::::::qqqqqqq4:::::::::::::::::::::::::::::::::::::::::::::",
":::::::::::44578qq1:::::::::::::::::::::::::::::::::::::::::::::",
"::::::::::::::::::::::::::::::::::::::::::::::::::::::::::::::::",
"::::::::::::::::::::::::::::::::::::::::::::::::::::::::::::::::",
"::::::::::::::::::::::::::::::::::::::::::::::::::::::::::::::::",
"::::::::::::::::::::::::::::::::::::::::::::::::::::::::::::::::",
"::::::::::::::::::::::::::::::::::::::::::::::::::::::::::::::::",
"::::::::::::::::::::::::::::::::::::::::::::::::::::::::::::::::",
"::::::::::::::::::::::::::::::::::::::::::::::::::::::::::::::::",
"::::::::::::::::::::::::::::::::::::::::::::::::::::::::::::::::",
"::::::::::::::::::::::::::::::::::::::::::::::::::::::::::::::::",
"::::::::::::::::::::::::::::::::::::::::::::::::::::::::::::::::",
"::::::::::::::::::::::::::::::::::::::::::::::::::::::::::::::::",
"::::::::::::::::::::::::::::::::::::::::::::::::::::::::::::::::",
"::::::::::::::::::::::::::::::::::::::::::::::::::::::::::::::::",
"::::::::::::::::::::::::::::::::::::::::::::::::::::::::::::::::",
"::::::::::::::::::::::::::::::::::::::::::::::::::::::::::::::::",
"::::::::::::::::::::::::::::::::::::::::::::::::::::::::::::::::",
"::::::::::::::::::::::::::::::::::::::::::::::::::::::::::::::::",
"::::::::::::::::::::::::::::::::::::::::::::::::::::::::::::::::",
"::::::::::::::::::::::::::::::::::::::::::::::::::::::::::::::::"
};
