/* XPM */
static char *result[] = {
/* columns rows colors chars-per-pixel */
"33 43 139 2 ",
"   c #17713C",
".  c #19703B",
"X  c #18733F",
"o  c #38713D",
"O  c #3C753F",
"+  c #755838",
"@  c #5E6E39",
"#  c #52733D",
"$  c #5A723D",
"%  c #6A6F3B",
"&  c #726E3A",
"*  c #1A7641",
"=  c #197941",
"-  c #1B7941",
";  c #197942",
":  c #1A7942",
">  c #1B7B43",
",  c #1B7C43",
"<  c #1B7E44",
"1  c #227942",
"2  c #337540",
"3  c #3A7640",
"4  c gray27",
"5  c gray28",
"6  c gray29",
"7  c #4B4B4B",
"8  c gray31",
"9  c #53504D",
"0  c #58524C",
"q  c gray33",
"w  c #565656",
"e  c gray34",
"r  c #5A5A5A",
"t  c #5B5B5B",
"y  c #6E6459",
"u  c #5A7364",
"i  c #606060",
"p  c gray39",
"a  c gray40",
"s  c #6B6864",
"d  c #716A62",
"f  c #776C60",
"g  c #8A5D2F",
"h  c #8F6032",
"j  c #916333",
"k  c #966533",
"l  c #936434",
"z  c #956534",
"x  c #976734",
"c  c #986734",
"v  c #996735",
"b  c #986636",
"n  c #986737",
"m  c #976935",
"M  c #9A6937",
"N  c #956738",
"B  c #9C6A38",
"V  c #9F6C39",
"C  c #B26527",
"Z  c #B66425",
"A  c #B96323",
"S  c #A16732",
"D  c #A06A35",
"F  c #A4703B",
"G  c #A7723C",
"H  c #A9733D",
"J  c #AF773F",
"K  c #C0621E",
"L  c #C4621C",
"P  c #CB6118",
"I  c #D26014",
"U  c #D16217",
"Y  c #D0641A",
"T  c #CE6920",
"R  c #CD6B23",
"E  c #CC6E27",
"W  c #CB732D",
"Q  c #CA7530",
"!  c #C97733",
"~  c #C87A37",
"^  c #C67E3D",
"/  c #806850",
"(  c #83705C",
")  c #89725A",
"_  c #8F7458",
"`  c #957656",
"'  c #AC7E4E",
"]  c #B17940",
"[  c #B47B41",
"{  c #B97E43",
"}  c #A07A52",
"|  c #A67C50",
" . c #1C8146",
".. c #1D8448",
"X. c #1E8A4C",
"o. c #1F8B4C",
"O. c #1F8D4D",
"+. c #1F8E4D",
"@. c #2B874D",
"#. c #20914F",
"$. c #2A924F",
"%. c #219351",
"&. c #219451",
"*. c #229A55",
"=. c #229B55",
"-. c #239E56",
";. c #24A058",
":. c #25A75C",
">. c #26AA5E",
",. c #30AB5E",
"<. c #369C61",
"1. c #2EA560",
"2. c #27AE60",
"3. c #2AA960",
"4. c #47924F",
"5. c #748D4C",
"6. c #6C914E",
"7. c #7F9751",
"8. c #4EA459",
"9. c #58A158",
"0. c #4E8163",
"q. c #4A8563",
"w. c #468A63",
"e. c #4C8C61",
"r. c #8C8849",
"t. c #92924E",
"y. c #9C904D",
"u. c #899550",
"i. c #BC8044",
"p. c #BE8245",
"a. c #B8824A",
"s. c #BE8448",
"d. c #B08B4A",
"f. c #BA8848",
"g. c #C58140",
"h. c #C48343",
"j. c #C18446",
"k. c #C48647",
"l. c None",
/* pixels */
"l.l.l.l.l.l.l.l.l.l.x n n M M M n n x l.l.l.l.l.l.l.l.l.l.l.l.l.l.",
"l.l.l.l.l.l.l.l.x m M M M M M M M M M M v l.l.l.l.l.l.l.l.l.l.l.l.",
"l.l.l.l.l.l.l.l.M M H { { k.k.k.{ { H B M l.l.l.l.l.l.l.l.l.l.l.l.",
"l.l.l.l.l.l.l.M M { k.k.k.k.k.k.k.k.k.] M M l.l.l.l.l.l.l.l.l.l.l.",
"l.l.l.l.l.l.n M Z E k.k.k.k.k.k.k.k.k.k.H % : l.l.l.l.l.l.l.l.l.l.",
"l.l.l.l.l.l.M S I I ! k.k.k.k.k.k.k.k.k.u.< > l.l.l.l.l.l.l.l.l.l.",
"l.l.l.l.l.l.M C I I T k.k.k.k.k.k.k.k.y.2.+.> l.l.l.l.l.l.l.l.l.l.",
"l.l.l.l.l.l.M Z I I T k.k.k.k.k.k.k.f.9.8.4.3 O l.l.l.l.l.l.l.l.l.",
"l.l.l.l.l.n M K I I E k.k.k.k.k.k.k.k.k.k.{ M z l.l.l.l.l.l.l.l.l.",
"l.l.l.l.l.n M L I I ^ k.k.k.k.k.k.k.k.k.k.k.M M l.l.l.l.l.l.l.l.l.",
"l.l.l.l.l.M M P U ~ k.k.k.k.k.k.k.k.k.k.k.k.M M l.l.l.l.l.l.l.l.l.",
"l.l.l.l.l.M M Q h.k.k.k.s.' ' | } s.k.k.k.k.F M l.l.l.l.l.l.l.l.l.",
"l.l.l.l.l.M V k.k.a._ s a a a a a a s ) ' k.H M g l.l.l.l.l.l.l.l.",
"l.l.l.l.l.M F k.` a a a a a a a a a a u e.t.J M l l.l.l.l.l.l.l.l.",
"l.l.l.l.+ N H ( a a a a a a a a a a a 3.2.2.6.$ 1 l.l.l.l.l.l.l.l.",
"l.l.l.l.8 9 y a a a a a a a a a a a a 2.2.2.2.+.>   l.l.l.l.l.l.l.",
"l.l.l.6 8 w a a a a a a a a a a a a a <.2.2.2.2. .> l.l.l.l.l.l.l.",
"l.l.l.8 8 p a a a a a a a a a a a a a u 2.2.2.2.*.> X l.l.l.l.l.l.",
"l.l.l.8 e a a a a a a a a a a a a a a a 0.2.2.2.2., >   l.l.l.l.l.",
"l.l.6 8 t a a a a a a a a a a a a a a a a w.2.2.2.%.> > l.l.l.l.l.",
"l.l.7 8 i a a a a a a a a a a a a a a a a a 3.2.2.=...> l.l.l.l.l.",
"l.l.7 8 i a a a a a a a a a a a a a a a a a <.2.2.;.o.> X l.l.l.l.",
"l.l.7 8 i a a a a a a a a a a a a a a a a a <.2.2.;.@.> . l.l.l.l.",
"l.l.7 8 i a a a a a a a a a a a a a a a a a 3.2.2.O.> - l.l.l.l.l.",
"l.l.5 8 r a a a a a a a a a a a a a a a a q.2.2.2...> l.l.l.l.l.l.",
"l.l.l.8 q a a a a a a a a a a a a a a a u 3.2.2.:.> > l.l.l.l.l.l.",
"l.l.l.8 8 i a a a a a a a a a a a a a u 3.2.2.2.*.> * l.l.l.l.l.l.",
"l.l.l.4 8 q a a a a a a a a a a a a a 1.2.2.2.>.< > l.l.l.l.l.l.l.",
"l.l.l.l.8 0 / a a a a a a a a a a a u 2.2.2.2.X.> * l.l.l.l.l.l.l.",
"l.l.l.l.l.N G } d a a a a a a a a a u 2.2.,.5.% 2 l.l.l.l.l.l.l.l.",
"l.l.l.l.l.M F k.s.( a a a a a a a a a <.8.d.J M h l.l.l.l.l.l.l.l.",
"l.l.l.l.l.M M k.k.k.a._ f a a a a a ( | k.k.H M l.l.l.l.l.l.l.l.l.",
"l.l.l.l.l.z M j.k.k.k.k.k.k.k.k.k.k.k.k.g.R D M l.l.l.l.l.l.l.l.l.",
"l.l.l.l.l.o # r.k.k.k.k.k.k.k.k.k.k.k.h.Y I M M l.l.l.l.l.l.l.l.l.",
"l.l.l.l.l.; > -.2.9.7.d.k.k.k.k.k.k.k.E I L M z l.l.l.l.l.l.l.l.l.",
"l.l.l.l.l.l.> &.2.2.,.d.k.k.k.k.k.k.k.I I A M j l.l.l.l.l.l.l.l.l.",
"l.l.l.l.l.l.> #.2.2.u.k.k.k.k.k.k.k.k.I I C M k l.l.l.l.l.l.l.l.l.",
"l.l.l.l.l.l.>  .2.9.k.k.k.k.k.k.k.k.k.Y I S M l.l.l.l.l.l.l.l.l.l.",
"l.l.l.l.l.l.= > $.f.k.k.k.k.k.k.k.k.k.W Z M m l.l.l.l.l.l.l.l.l.l.",
"l.l.l.l.l.l.l.> & i.k.k.k.k.k.k.k.k.k.[ M M l.l.l.l.l.l.l.l.l.l.l.",
"l.l.l.l.l.l.l.@ M M H j.k.k.k.k.k.p.H M M b l.l.l.l.l.l.l.l.l.l.l.",
"l.l.l.l.l.l.l.l.l.m M M M M M M M M M m l.l.l.l.l.l.l.l.l.l.l.l.l.",
"l.l.l.l.l.l.l.l.l.l.c M M M M M M M c l.l.l.l.l.l.l.l.l.l.l.l.l.l."
};
