/* XPM */
static char *result[] = {
/* columns rows colors chars-per-pixel */
"33 43 104 2 ",
"   c #282828",
".  c #2A2A2A",
"X  c gray17",
"o  c #2C2C2C",
"O  c #2D2D2D",
"+  c gray18",
"@  c #2F2F2F",
"#  c gray19",
"$  c #313131",
"%  c #323232",
"&  c gray20",
"*  c #353535",
"=  c gray21",
"-  c #373737",
";  c gray22",
":  c #393939",
">  c gray23",
",  c #3C3C3C",
"<  c gray24",
"1  c #3E3E3E",
"2  c #3F3F3F",
"3  c #414141",
"4  c #494949",
"5  c gray31",
"6  c #594E43",
"7  c #58524D",
"8  c gray32",
"9  c #5B5B5B",
"0  c #68594B",
"q  c #706459",
"w  c #7D6D5D",
"e  c gray39",
"r  c #6C6C6C",
"t  c gray46",
"y  c #89725A",
"u  c #92765D",
"i  c #887665",
"p  c #977C60",
"a  c #9A7D61",
"s  c #9B7F64",
"d  c #9D7F64",
"f  c #9F8065",
"g  c #9F8366",
"h  c #A38568",
"j  c #A7886A",
"k  c #A8896B",
"l  c #AE8E6F",
"z  c #AE9277",
"x  c #B49373",
"c  c #B79575",
"v  c #BF9C7A",
"b  c #C5A17E",
"n  c #848484",
"m  c #868686",
"M  c gray56",
"N  c gray60",
"B  c #9A9A9A",
"V  c #9B9B9B",
"C  c #A0A0A0",
"Z  c #A2A2A2",
"A  c gray64",
"S  c gray66",
"D  c #A9A9A9",
"F  c #AAAAAA",
"G  c #B1B1B1",
"H  c #B2B2B2",
"J  c #B4B4B4",
"K  c #B6B6B6",
"L  c gray73",
"P  c #BBBBBB",
"I  c gray74",
"U  c #C3A384",
"Y  c #CCA682",
"T  c #CFAC8A",
"R  c #D4AC87",
"E  c #DCB38C",
"W  c #DDB48D",
"Q  c #DBB590",
"!  c #E7BE96",
"~  c #EDC097",
"^  c #F2C59A",
"/  c #F3C69B",
"(  c #F3C79C",
")  c #F9CB9F",
"_  c #DBCDBF",
"`  c #DFCDBC",
"'  c #EFCEAF",
"]  c #FBCFA5",
"[  c #F5CFAA",
"{  c #F2CFAD",
"}  c #F8CFA8",
"|  c #FFD0A3",
" . c #E5CEB7",
".. c #EBCEB2",
"X. c #E8CEB4",
"o. c #E2CDBA",
"O. c #C3C3C3",
"+. c gray78",
"@. c #CFCCC9",
"#. c gray80",
"$. c #D2CCC6",
"%. c #D5CCC4",
"&. c #D8CDC1",
"*. c None",
/* pixels */
"*.*.*.*.*.*.*.*.*.*.O o o + + + o o O *.*.*.*.*.*.*.*.*.*.*.*.*.*.",
"*.*.*.*.*.*.*.*.O O + + + + + + + + + + + *.*.*.*.*.*.*.*.*.*.*.*.",
"*.*.*.*.*.*.*.*.+ + * , , 3 3 3 , , * @ + *.*.*.*.*.*.*.*.*.*.*.*.",
"*.*.*.*.*.*.*.+ + , 3 3 3 3 3 3 3 3 3 ; + + *.*.*.*.*.*.*.*.*.*.*.",
"*.*.*.*.*.*.+ + : 3 3 3 3 3 3 3 3 3 3 3 * + O *.*.*.*.*.*.*.*.*.*.",
"*.*.*.*.*.*.+ $ 3 3 3 3 3 3 3 3 3 3 3 3 3 # + *.*.*.*.*.*.*.*.*.*.",
"*.*.*.*.*.*.+ = 3 3 3 3 3 3 3 3 3 3 3 3 3 = + *.*.*.*.*.*.*.*.*.*.",
"*.*.*.*.*.*.+ - 3 3 3 3 3 3 3 3 3 3 3 3 3 - + X *.*.*.*.*.*.*.*.*.",
"*.*.*.*.*.o + > 3 3 3 3 3 3 3 3 3 3 3 3 3 , + o *.*.*.*.*.*.*.*.*.",
"*.*.*.*.*.o + , 3 3 3 3 3 3 3 3 3 3 3 3 3 2 + + *.*.*.*.*.*.*.*.*.",
"*.*.*.*.*.+ + 2 3 3 3 3 3 3 3 3 3 3 3 3 3 3 + + *.*.*.*.*.*.*.*.*.",
"*.*.*.*.*.+ + 3 3 3 3 3 9 e e r m q 7 3 3 3 % + *.*.*.*.*.*.*.*.*.",
"*.*.*.*.*.+ $ 3 3 9 M L #.#.#.#.#.| | T q 3 * +   *.*.*.*.*.*.*.*.",
"*.*.*.*.*.+ % 4 C #.#.#.#.#.#.#.$.| | | | U - + X *.*.*.*.*.*.*.*.",
"*.*.*.*.5 * = C #.#.#.#.#.#.#.#.{ | | | | | z 0 s *.*.*.*.*.*.*.*.",
"*.*.*.*.F Z D #.#.#.#.$.&.&.o.} | | | | | | | b h p *.*.*.*.*.*.*.",
"*.*.*.C F J #.@.o.] | | | | | | | | | | | | | | l h *.*.*.*.*.*.*.",
"*.*.*.F F +.#.' | | | | | | | | | | | | | | | | E h a *.*.*.*.*.*.",
"*.*.*.F K #.X.| | | | | | | | | | [ | | | | | | | j h d *.*.*.*.*.",
"*.*.C F I $.| | | | | | | | |  .$.#.' | | | | | | W j h u *.*.*.*.",
"*.*.A F O.o.| | | | | | | ] %.#.#.#.} | | | | | | ~ Y h f *.*.*.*.",
"*.*.A F O. .| | | | | | |  .#.#.#.` | | | | | | | ^ R h g *.*.*.*.",
"*.*.A F O. .| | | | | | | X.#.#.#.@.} | | | | | | ^ c h a *.*.*.*.",
"*.*.A F O.` | | | | | | | | ` #.#.#.%.| | | | | | Y h h *.*.*.*.*.",
"*.*.V F P @.| | | | | | | | | } X._ &.] | | | | | x h *.*.*.*.*.*.",
"*.*.*.F H #...| | | | | | | | | | | | | | | | | / h h *.*.*.*.*.*.",
"*.*.*.S F O.@.[ | | | | | | | | | | | | | | | | E h p *.*.*.*.*.*.",
"*.*.*.N F H #.@.` ] | | | | | | | | | | | | | ) k h *.*.*.*.*.*.*.",
"*.*.*.*.S B n #.#.#.#.$.&.&.o.[ | | | | | | | v h a *.*.*.*.*.*.*.",
"*.*.*.*.*.* & t L #.#.#.#.#.#.#...| | | | ( w 6 y *.*.*.*.*.*.*.*.",
"*.*.*.*.*.+ % 3 4 C #.#.#.#.#.#.#.] | | ! q - + . *.*.*.*.*.*.*.*.",
"*.*.*.*.*.+ @ 3 3 3 8 M G #.#.#.#.{ Q i 3 3 & +   *.*.*.*.*.*.*.*.",
"*.*.*.*.*.+ + 3 3 3 3 3 3 3 3 3 3 3 3 3 3 3 # + *.*.*.*.*.*.*.*.*.",
"*.*.*.*.*.X + < 3 3 3 3 3 3 3 3 3 3 3 3 3 3 + + *.*.*.*.*.*.*.*.*.",
"*.*.*.*.*.o + , 3 3 3 3 3 3 3 3 3 3 3 3 3 , + o *.*.*.*.*.*.*.*.*.",
"*.*.*.*.*.O + ; 3 3 3 3 3 3 3 3 3 3 3 3 3 ; + . *.*.*.*.*.*.*.*.*.",
"*.*.*.*.*.*.+ = 3 3 3 3 3 3 3 3 3 3 3 3 3 = + X *.*.*.*.*.*.*.*.*.",
"*.*.*.*.*.*.+ $ 3 3 3 3 3 3 3 3 3 3 3 3 3 # + *.*.*.*.*.*.*.*.*.*.",
"*.*.*.*.*.*.+ + : 3 3 3 3 3 3 3 3 3 3 3 ; + O *.*.*.*.*.*.*.*.*.*.",
"*.*.*.*.*.*.*.+ @ < 3 3 3 3 3 3 3 3 3 : + + *.*.*.*.*.*.*.*.*.*.*.",
"*.*.*.*.*.*.*.X + + * 2 3 3 3 3 3 1 * + + X *.*.*.*.*.*.*.*.*.*.*.",
"*.*.*.*.*.*.*.*.*.+ + + + + + + + + + + *.*.*.*.*.*.*.*.*.*.*.*.*.",
"*.*.*.*.*.*.*.*.*.*.O + + + + + + + o *.*.*.*.*.*.*.*.*.*.*.*.*.*."
};
