/* XPM */
static char *result[] = {
/* columns rows colors chars-per-pixel */
"35 43 145 2 ",
"   c #1B1B1B",
".  c #1E1E1E",
"X  c gray12",
"o  c #202020",
"O  c gray14",
"+  c #252525",
"@  c #272727",
"#  c #202528",
"$  c gray16",
"%  c #2A2A2A",
"&  c gray18",
"*  c #202B31",
"=  c gray19",
"-  c gray20",
";  c #3C3834",
":  c #453D35",
">  c #4E4236",
",  c #574738",
"<  c #69523A",
"1  c #2D3E48",
"2  c #323F46",
"3  c #324550",
"4  c #1F5472",
"5  c #2B546B",
"6  c #315164",
"7  c #315D77",
"8  c #766851",
"9  c #5C6F70",
"0  c #4E727F",
"q  c #81572E",
"w  c #865A2F",
"e  c #885C31",
"r  c #8B5E30",
"t  c #8D5D30",
"y  c #8E6031",
"u  c #8A633A",
"i  c #916233",
"p  c #926333",
"a  c #946434",
"s  c #976635",
"d  c #9A6836",
"f  c #A06D39",
"g  c #A46F3A",
"h  c #A6713B",
"j  c #A8723C",
"k  c #AD763E",
"l  c #B0783F",
"z  c #966C40",
"x  c #9F7142",
"c  c #A87643",
"v  c #B67C41",
"b  c #B17B44",
"n  c #BA7F43",
"m  c #9A7D61",
"M  c #9D7F64",
"N  c #7C827D",
"B  c #BA8045",
"V  c #BD8144",
"C  c #BA864F",
"Z  c #9E8969",
"A  c #878472",
"S  c #8C8B7A",
"D  c #A08266",
"F  c #A18366",
"G  c #A18367",
"H  c #A28366",
"J  c #A18466",
"K  c #A88860",
"L  c #A38568",
"P  c #A8896B",
"I  c #AE8E6F",
"U  c #BA9776",
"Y  c #BF9C7A",
"T  c #B89B7E",
"R  c #C08345",
"E  c #C48647",
"W  c #C5A17E",
"Q  c #307095",
"!  c #347395",
"~  c #30769E",
"^  c #2676A4",
"/  c #2678A6",
"(  c #2D7AA5",
")  c #277BA9",
"_  c #2479AB",
"`  c #247AAA",
"'  c #257AAB",
"]  c #267AAB",
"[  c #257BAC",
"{  c #277CAD",
"}  c #277DAF",
"|  c #307CA8",
" . c #287FB1",
".. c #547583",
"X. c #427A97",
"o. c #4E7A90",
"O. c #4E7D94",
"+. c #557F93",
"@. c #2880B3",
"#. c #2F82B2",
"$. c #2982B5",
"%. c #2983B7",
"&. c #2A85BA",
"*. c #2A86BC",
"=. c #2B88BE",
"-. c #2F88BC",
";. c #3487B5",
":. c #6C8186",
">. c #748181",
",. c #618692",
"<. c #668F9C",
"1. c #5491AD",
"2. c #4A92B6",
"3. c #7DABBF",
"4. c #2B8AC0",
"5. c #2C8BC2",
"6. c #2C8DC5",
"7. c #2D8EC7",
"8. c #2F8EC6",
"9. c #2D90C9",
"0. c #2E91CB",
"q. c #2E93CD",
"w. c #3894C7",
"e. c #2F95D0",
"r. c #4F99C1",
"t. c #499CCA",
"y. c #5D9FC1",
"u. c #56A0C7",
"i. c #63A3C4",
"p. c #70A7C1",
"a. c #BCA68C",
"s. c #97B2B9",
"d. c #A4B6B6",
"f. c #B1B9B3",
"g. c #CBA581",
"h. c #D6AF89",
"j. c #DCB38C",
"k. c #E2B890",
"l. c #E8BD94",
"z. c #EDC197",
"x. c #F3C69B",
"c. c #F9CB9F",
"v. c #D8C4AB",
"b. c #FFD0A3",
"n. c None",
/* pixels */
"n.n.n.n.n.n.n.n.n.n._ ) ) { { { ) ) _ n.n.n.n.n.n.n.n.n.n.n.n.n.n.n.n.",
"n.n.n.n.n.n.n.n._ [ { { { { { { { { { { ] ) ) _ n.n.n.n.n.n.n.n.n.n.n.",
"n.n.n.n.n.n.n.n.{ { &.7.7.e.e.e.7.7.&.} { { { { { { { ) ' n.n.n.n.n.n.",
"n.n.n.n.n.n.n.{ { 7.e.e.e.e.e.e.e.e.e.4.{ { &.=.%. .{ { { O.n.n.n.n.n.",
"n.n.n.n.n.n.] { 5.e.e.e.e.e.e.e.e.e.e.e.&.{ } e.e.e.e.*.+.L F H n.n.n.",
"n.n.n.n.n.n.{ @.e.e.e.e.e.e.e.e.e.e.e.e.e. .{ 6.e.e.e.r.g.U L L L G n.",
"n.n.n.n.n.n.{ *.e.e.e.e.e.e.e.e.e.e.e.e.e.*.{ =.e.e.e.i.b.b.b.k.P L n.",
"n.n.n.n.n.n.{ =.e.e.e.e.e.e.e.e.e.e.e.e.e.=.{ &.e.e.e.3.b.b.b.b.k.L G ",
"n.n.n.n.n.) { 6.e.e.e.e.e.e.e.e.e.e.e.e.e.7.{ @.e.e.e.d.b.b.b.b.l.L G ",
"n.n.n.n.n.) { 7.e.e.e.e.e.e.e.e.e.e.e.e.e.q.{ { e.e.e.v.b.b.b.b.h.L n.",
"n.n.n.n.n.{ { q.e.e.e.e.e.e.e.e.e.e.e.e.e.e.{ { 9.e.t.b.b.b.b.b.I L n.",
"n.n.n.n.n.{ { e.e.e.e.e.#.| | ~ X.1.w.e.e.e.$.{ 5.e.d.b.b.b.b.z.L F n.",
"n.n.n.n.n.{ @.e.e.#.7 2 - - - - B E E Z 1.e.&.{ =.7.a.l.c.b.b.Y L H n.",
"n.n.n.n.n.{ $.8.6 - - - - - - , E E E E E S ;.{ { { >.L L L L L L n.n.",
"n.n.n.n.4 ^ *.6 - - - - - - - ; b E E E E E A 9 u ! o.M L L L F n.n.n.",
"n.n.n.n.o # 1 - - - - - - - - - : c E E E E E g i w n.n.n.n.n.n.n.n.n.",
"n.n.n.X o + - - - - - - - - - - - - < b E E E E s i n.n.n.n.n.n.n.n.n.",
"n.n.n.o o = - - - - - - - - - - - - - - z E E E l i e n.n.n.n.n.n.n.n.",
"n.n.n.o @ - - - - - - - - - - - - - - - > E E E E p i r n.n.n.n.n.n.n.",
"n.n.X o % - - - - - - - - - - - - - - - - b E E E k p i q n.n.n.n.n.n.",
"n.n.. o & - - - - - - - - - - - - - - - - x E E E v g i t n.n.n.n.n.n.",
"n.n.. o & - - - - - - - - - - - - - - - - x E E E n j i y n.n.n.n.n.n.",
"n.n.. o & - - - - - - - - - - - - - - - - x E E E n d i e n.n.n.n.n.n.",
"n.n.. o & - - - - - - - - - - - - - - - - c E E E h i i n.n.n.n.n.n.n.",
"n.n.. o $ - - - - - - - - - - - - - - - - E E E E d i n.n.n.n.n.n.n.n.",
"n.n.n.o O - - - - - - - - - - - - - - - < E E E V i i n.n.n.n.n.n.n.n.",
"n.n.n.o o & - - - - - - - - - - - - - ; b E E E l i w n.n.n.n.n.n.n.n.",
"n.n.n.  o O - - - - - - - - - - - > z E E E E R a i n.n.n.n.n.n.n.n.n.",
"n.n.n.n.o * 5 - - - - - - - - - < E E E E E E f i e n.n.n.n.n.n.n.n.n.",
"n.n.n.n.n.^ %.Q 2 - - - - - - > E E E E E C ,.0 8 ( ..m L L L L D n.n.",
"n.n.n.n.n.{ $.e.8.6 - - - - - > E E E E K 2.=.{ { { N L L L L L L n.n.",
"n.n.n.n.n.{ } e.e.e.-.7 3 - - - c E K <.e.e.%.{ =.6.T j.x.b.b.h.L H n.",
"n.n.n.n.n.{ { e.e.e.e.e.e.e.e.e.e.e.e.e.e.e. .{ 7.e.f.b.b.b.b.z.L F n.",
"n.n.n.n.n./ { 9.e.e.e.e.e.e.e.e.e.e.e.e.e.e.{ { q.e.u.b.b.b.b.b.I L n.",
"n.n.n.n.n.) { 7.e.e.e.e.e.e.e.e.e.e.e.e.e.7.{ @.e.e.e.v.b.b.b.b.g.L n.",
"n.n.n.n.n._ { 4.e.e.e.e.e.e.e.e.e.e.e.e.e.4.{ %.e.e.e.s.b.b.b.b.l.L H ",
"n.n.n.n.n.n.{ *.e.e.e.e.e.e.e.e.e.e.e.e.e.*.{ =.e.e.e.p.b.b.b.b.k.L G ",
"n.n.n.n.n.n.{ @.e.e.e.e.e.e.e.e.e.e.e.e.e. .{ 6.e.e.e.i.b.b.b.k.P L D ",
"n.n.n.n.n.n.] { 5.e.e.e.e.e.e.e.e.e.e.e.4.{ } e.e.e.e.y.j.W P L L J n.",
"n.n.n.n.n.n.n.{ } 9.e.e.e.e.e.e.e.e.e.5.{ { 4.e.e.e.e.6.:.L L G n.n.n.",
"n.n.n.n.n.n.n.' { { &.q.e.e.e.e.e.0.&.{ { @.6.=.=.$.$.{ { O.n.n.n.n.n.",
"n.n.n.n.n.n.n.n.n.[ { { { { { { { { { { { { { { { { { { _ n.n.n.n.n.n.",
"n.n.n.n.n.n.n.n.n.n.` { { { { { { { ) ) ) ) ) _ n.n.n.n.n.n.n.n.n.n.n."
};
