/* XPM */
static char *result[] = {
/* columns rows colors chars-per-pixel */
"35 43 163 2 ",
"   c #17713C",
".  c #19703B",
"X  c #18733F",
"o  c #38713D",
"O  c #755838",
"+  c #586637",
"@  c #5E6E39",
"#  c #42753F",
"$  c #4A743E",
"%  c #52733D",
"&  c #5A723D",
"*  c #6A6A38",
"=  c #6A6F3B",
"-  c #6E6E39",
";  c #726E3A",
":  c #187640",
">  c #1A7641",
",  c #197941",
"<  c #1B7940",
"1  c #1B7941",
"2  c #1B7A41",
"3  c #197942",
"4  c #1A7942",
"5  c #1B7B43",
"6  c #1B7C43",
"7  c #1B7E44",
"8  c #227942",
"9  c #3A7640",
"0  c #3A7D43",
"q  c gray27",
"w  c gray28",
"e  c gray29",
"r  c #4B4B4B",
"t  c gray31",
"y  c #53504D",
"u  c #58524C",
"i  c gray33",
"p  c #565656",
"a  c gray34",
"s  c #5A5A5A",
"d  c #5B5B5B",
"f  c #677B42",
"g  c #6E6459",
"h  c #5A7364",
"j  c #606060",
"k  c gray39",
"l  c gray40",
"z  c #6B6864",
"x  c #716A62",
"c  c #776C60",
"v  c #826736",
"b  c #8A6B38",
"n  c #956534",
"m  c #976734",
"M  c #986734",
"N  c #986636",
"B  c #986736",
"V  c #986737",
"C  c #976935",
"Z  c #9A6937",
"A  c #956738",
"S  c #9C6A38",
"D  c #9F6C39",
"F  c #B26527",
"G  c #B66425",
"H  c #B96323",
"J  c #A16732",
"K  c #A06A35",
"L  c #A16E3A",
"P  c #A4703B",
"I  c #A7723C",
"U  c #A1753D",
"Y  c #A9733D",
"T  c #AC753E",
"R  c #AF773F",
"E  c #C0621E",
"W  c #C4621C",
"Q  c #CB6118",
"!  c #D26014",
"~  c #D16217",
"^  c #D0641A",
"/  c #CE6920",
"(  c #CD6B23",
")  c #CC6E27",
"_  c #CB732D",
"`  c #CA7530",
"'  c #C97733",
"]  c #C87A37",
"[  c #C67E3D",
"{  c #806850",
"}  c #83705C",
"|  c #89725A",
" . c #8F7458",
".. c #957656",
"X. c #AC7E4E",
"o. c #B17940",
"O. c #B47B41",
"+. c #B67C42",
"@. c #B97E43",
"#. c #A07A52",
"$. c #A67C50",
"%. c #1C8146",
"&. c #1D8448",
"*. c #1E874A",
"=. c #1E8A4C",
"-. c #1F8B4C",
";. c #1F8D4D",
":. c #1F8E4D",
">. c #2B874D",
",. c #26894B",
"<. c #20914F",
"1. c #2A924F",
"2. c #32904F",
"3. c #219351",
"4. c #219451",
"5. c #219753",
"6. c #229A55",
"7. c #229B55",
"8. c #239E56",
"9. c #24A058",
"0. c #24A158",
"q. c #24A45A",
"w. c #25A75C",
"e. c #26AA5E",
"r. c #30AB5E",
"t. c #369C61",
"y. c #2EA560",
"u. c #27AE60",
"i. c #2AA960",
"p. c #47924F",
"a. c #748D4C",
"s. c #6C914E",
"d. c #619F56",
"f. c #6B9C55",
"g. c #7F9751",
"h. c #759A53",
"j. c #44A65B",
"k. c #4EA459",
"l. c #58A158",
"z. c #4E8163",
"x. c #4A8563",
"c. c #468A63",
"v. c #4C8C61",
"b. c #848145",
"n. c #8C8849",
"m. c #9C8C4B",
"M. c #92924E",
"N. c #9C904D",
"B. c #899550",
"V. c #A38848",
"C. c #A68D4B",
"Z. c #BC8044",
"A. c #BE8245",
"S. c #B98546",
"D. c #B8824A",
"F. c #BE8448",
"G. c #B08B4A",
"H. c #BA8848",
"J. c #C58140",
"K. c #C48343",
"L. c #C18446",
"P. c #C48647",
"I. c None",
/* pixels */
"I.I.I.I.I.I.I.I.I.I.m V V Z Z Z V V m I.I.I.I.I.I.I.I.I.I.I.I.I.I.I.I.",
"I.I.I.I.I.I.I.I.m C Z Z Z Z Z Z Z Z Z Z B V V m I.I.I.I.I.I.I.I.I.I.I.",
"I.I.I.I.I.I.I.I.Z Z Y @.@.P.P.P.@.@.Y S Z Z Z Z Z Z Z V N I.I.I.I.I.I.",
"I.I.I.I.I.I.I.Z Z @.P.P.P.P.P.P.P.P.P.o.Z Z U R I D Z Z Z - I.I.I.I.I.",
"I.I.I.I.I.I.V Z G ) P.P.P.P.P.P.P.P.P.P.Y = 0 P.P.P.P.T = 5 2 3 I.I.I.",
"I.I.I.I.I.I.Z J ! ! ' P.P.P.P.P.P.P.P.P.B.7 5 S.P.P.P.V.<.*.5 5 5 1 I.",
"I.I.I.I.I.I.Z F ! ! / P.P.P.P.P.P.P.P.N.u.:.5 b.P.P.P.N.u.u.u.8.7 5 I.",
"I.I.I.I.I.I.Z G ! ! / P.P.P.P.P.P.P.H.l.k.p.9 f P.P.P.B.u.u.u.u.8.5 1 ",
"I.I.I.I.I.V Z E ! ! ) P.P.P.P.P.P.P.P.P.P.@.Z L P.P.P.f.u.u.u.u.0.5 1 ",
"I.I.I.I.I.V Z W ! ! [ P.P.P.P.P.P.P.P.P.P.P.Z Z P.P.P.j.u.u.u.u.5.5 I.",
"I.I.I.I.I.Z Z Q ~ ] P.P.P.P.P.P.P.P.P.P.P.P.Z Z Z.P.G.u.u.u.u.u.%.5 I.",
"I.I.I.I.I.Z Z ` K.P.P.P.F.X.X.$.#.F.P.P.P.P.P Z O.P.f.u.u.u.u.q.5 2 I.",
"I.I.I.I.I.Z D P.P.D. .z l l l l l l z | X.P.Y Z R @.2.0.e.u.u.=.5 3 I.",
"I.I.I.I.I.Z P P...l l l l l l l l l l h v.M.R Z Z Z $ 5 5 5 5 5 5 I.I.",
"I.I.I.I.O A Y } l l l l l l l l l l l i.u.u.s.& 8 v * : 5 5 5 2 I.I.I.",
"I.I.I.I.t y g l l l l l l l l l l l l u.u.u.u.:.5   I.I.I.I.I.I.I.I.I.",
"I.I.I.e t p l l l l l l l l l l l l l t.u.u.u.u.%.5 I.I.I.I.I.I.I.I.I.",
"I.I.I.t t k l l l l l l l l l l l l l h u.u.u.u.6.5 X I.I.I.I.I.I.I.I.",
"I.I.I.t a l l l l l l l l l l l l l l l z.u.u.u.u.6 5   I.I.I.I.I.I.I.",
"I.I.e t d l l l l l l l l l l l l l l l l c.u.u.u.3.5 5 I.I.I.I.I.I.I.",
"I.I.r t j l l l l l l l l l l l l l l l l l i.u.u.7.&.5 I.I.I.I.I.I.I.",
"I.I.r t j l l l l l l l l l l l l l l l l l t.u.u.9.-.5 X I.I.I.I.I.I.",
"I.I.r t j l l l l l l l l l l l l l l l l l t.u.u.9.>.5 . I.I.I.I.I.I.",
"I.I.r t j l l l l l l l l l l l l l l l l l i.u.u.;.5 1 I.I.I.I.I.I.I.",
"I.I.w t s l l l l l l l l l l l l l l l l x.u.u.u.&.5 I.I.I.I.I.I.I.I.",
"I.I.I.t i l l l l l l l l l l l l l l l h i.u.u.w.5 5 I.I.I.I.I.I.I.I.",
"I.I.I.t t j l l l l l l l l l l l l l h i.u.u.u.6.5 > I.I.I.I.I.I.I.I.",
"I.I.I.q t i l l l l l l l l l l l l l y.u.u.u.e.7 5 I.I.I.I.I.I.I.I.I.",
"I.I.I.I.t u { l l l l l l l l l l l h u.u.u.u.=.5 > I.I.I.I.I.I.I.I.I.",
"I.I.I.I.I.A I #.x l l l l l l l l l h u.u.r.a.= 9 b + X 5 5 5 5 < I.I.",
"I.I.I.I.I.Z P P.F.} l l l l l l l l l t.k.G.R Z Z Z # 5 5 5 5 5 5 I.I.",
"I.I.I.I.I.Z Z P.P.P.D. .c l l l l l } $.P.P.Y Z o.+.,.6.w.u.u.5.5 3 I.",
"I.I.I.I.I.n Z L.P.P.P.P.P.P.P.P.P.P.P.P.J.( K Z @.P.d.u.u.u.u.q.5 2 I.",
"I.I.I.I.I.o % n.P.P.P.P.P.P.P.P.P.P.P.K.^ ! Z Z P.P.C.u.u.u.u.u.%.5 I.",
"I.I.I.I.I.3 5 8.u.l.g.G.P.P.P.P.P.P.P.) ! W Z L P.P.P.j.u.u.u.u.<.5 I.",
"I.I.I.I.I.I.5 4.u.u.r.G.P.P.P.P.P.P.P.! ! H Z I P.P.P.h.u.u.u.u.0.5 3 ",
"I.I.I.I.I.I.5 <.u.u.B.P.P.P.P.P.P.P.P.! ! F Z R P.P.P.M.u.u.u.u.8.5 1 ",
"I.I.I.I.I.I.5 %.u.l.P.P.P.P.P.P.P.P.P.^ ! J Z @.P.P.P.N.u.u.u.8.7 5 < ",
"I.I.I.I.I.I., 5 1.H.P.P.P.P.P.P.P.P.P._ G Z S P.P.P.P.m.6.:.7 5 5 4 I.",
"I.I.I.I.I.I.I.5 ; Z.P.P.P.P.P.P.P.P.P.O.Z Z O.P.P.P.P.+.% 5 5 , I.I.I.",
"I.I.I.I.I.I.I.@ Z Z Y L.P.P.P.P.P.A.Y Z Z L +.R R P P Z Z - I.I.I.I.I.",
"I.I.I.I.I.I.I.I.I.C Z Z Z Z Z Z Z Z Z Z Z Z Z Z Z Z Z Z m I.I.I.I.I.I.",
"I.I.I.I.I.I.I.I.I.I.M Z Z Z Z Z Z Z V V V V V m I.I.I.I.I.I.I.I.I.I.I."
};
