/* XPM */
static char *result[] = {
/* columns rows colors chars-per-pixel */
"33 43 106 2 ",
"   c #1B1B1B",
".  c #1E1E1E",
"X  c gray12",
"o  c #202020",
"O  c gray14",
"+  c #252525",
"@  c #272727",
"#  c #202528",
"$  c gray16",
"%  c #2A2A2A",
"&  c gray18",
"*  c #202B31",
"=  c gray19",
"-  c gray20",
";  c #3C3834",
":  c #453D35",
">  c #4E4236",
",  c #574738",
"<  c #69523A",
"1  c #2D3E48",
"2  c #323F46",
"3  c #324550",
"4  c #1F5472",
"5  c #2B546B",
"6  c #315164",
"7  c #315D77",
"8  c #7A6549",
"9  c #5C6F70",
"0  c #4E727F",
"q  c #81572E",
"w  c #865A2F",
"e  c #885C31",
"r  c #8B5E30",
"t  c #8D5D30",
"y  c #8E6031",
"u  c #8A633A",
"i  c #916233",
"p  c #926333",
"a  c #946434",
"s  c #976635",
"d  c #9A6836",
"f  c #A06D39",
"g  c #A46F3A",
"h  c #A6713B",
"j  c #A8723C",
"k  c #AD763E",
"l  c #B0783F",
"z  c #966C40",
"x  c #9F7142",
"c  c #A87643",
"v  c #B67C41",
"b  c #B17B44",
"n  c #BA7F43",
"m  c #BA8045",
"M  c #BD8144",
"N  c #BA864F",
"B  c #9E8969",
"V  c #878472",
"C  c #8C8B7A",
"Z  c #A88860",
"A  c #C08345",
"S  c #C48647",
"D  c #236F9B",
"F  c #307095",
"G  c #30769E",
"H  c #2375A3",
"J  c #2577A4",
"K  c #2676A4",
"L  c #2477A7",
"P  c #2678A6",
"I  c #2679A8",
"U  c #277BA9",
"Y  c #2479AB",
"T  c #247AAA",
"R  c #257AAB",
"E  c #267AAB",
"W  c #257BAC",
"Q  c #277CAD",
"!  c #277DAF",
"~  c #307CA8",
"^  c #287FB1",
"/  c #427A97",
"(  c #2880B3",
")  c #2F82B2",
"_  c #2982B5",
"`  c #2983B7",
"'  c #2A85BA",
"]  c #2A86BC",
"[  c #2B88BE",
"{  c #2F88BC",
"}  c #3487B5",
"|  c #618692",
" . c #668F9C",
".. c #5491AD",
"X. c #4A92B6",
"o. c #2B8AC0",
"O. c #2C8BC2",
"+. c #2C8DC5",
"@. c #2D8EC7",
"#. c #2F8EC6",
"$. c #2D90C9",
"%. c #2E91CB",
"&. c #2E93CD",
"*. c #3894C7",
"=. c #2F95D0",
"-. c None",
/* pixels */
"-.-.-.-.-.-.-.-.-.-.Y U U Q Q Q U U Y -.-.-.-.-.-.-.-.-.-.-.-.-.-.",
"-.-.-.-.-.-.-.-.Y W Q Q Q Q Q Q Q Q Q Q R -.-.-.-.-.-.-.-.-.-.-.-.",
"-.-.-.-.-.-.-.-.Q Q ' @.@.=.=.=.@.@.' ! Q -.-.-.-.-.-.-.-.-.-.-.-.",
"-.-.-.-.-.-.-.Q Q @.=.=.=.=.=.=.=.=.=.o.Q Q -.-.-.-.-.-.-.-.-.-.-.",
"-.-.-.-.-.-.E Q O.=.=.=.=.=.=.=.=.=.=.=.' Q W -.-.-.-.-.-.-.-.-.-.",
"-.-.-.-.-.-.Q ( =.=.=.=.=.=.=.=.=.=.=.=.=.^ Q -.-.-.-.-.-.-.-.-.-.",
"-.-.-.-.-.-.Q ] =.=.=.=.=.=.=.=.=.=.=.=.=.] Q -.-.-.-.-.-.-.-.-.-.",
"-.-.-.-.-.-.Q [ =.=.=.=.=.=.=.=.=.=.=.=.=.[ Q R -.-.-.-.-.-.-.-.-.",
"-.-.-.-.-.U Q +.=.=.=.=.=.=.=.=.=.=.=.=.=.@.Q L -.-.-.-.-.-.-.-.-.",
"-.-.-.-.-.U Q @.=.=.=.=.=.=.=.=.=.=.=.=.=.&.Q Q -.-.-.-.-.-.-.-.-.",
"-.-.-.-.-.Q Q &.=.=.=.=.=.=.=.=.=.=.=.=.=.=.Q Q -.-.-.-.-.-.-.-.-.",
"-.-.-.-.-.Q Q =.=.=.=.=.) ~ ~ G / ..*.=.=.=._ Q -.-.-.-.-.-.-.-.-.",
"-.-.-.-.-.Q ( =.=.) 7 2 - - - - m S S B ..=.' Q D -.-.-.-.-.-.-.-.",
"-.-.-.-.-.Q _ #.6 - - - - - - , S S S S S C } Q J -.-.-.-.-.-.-.-.",
"-.-.-.-.4 K ] 6 - - - - - - - ; b S S S S S V 9 u -.-.-.-.-.-.-.-.",
"-.-.-.-.o # 1 - - - - - - - - - : c S S S S S g i w -.-.-.-.-.-.-.",
"-.-.-.X o + - - - - - - - - - - - - < b S S S S s i -.-.-.-.-.-.-.",
"-.-.-.o o = - - - - - - - - - - - - - - z S S S l i e -.-.-.-.-.-.",
"-.-.-.o @ - - - - - - - - - - - - - - - > S S S S p i r -.-.-.-.-.",
"-.-.X o % - - - - - - - - - - - - - - - - b S S S k p i q -.-.-.-.",
"-.-.. o & - - - - - - - - - - - - - - - - x S S S v g i t -.-.-.-.",
"-.-.. o & - - - - - - - - - - - - - - - - x S S S n j i y -.-.-.-.",
"-.-.. o & - - - - - - - - - - - - - - - - x S S S n d i e -.-.-.-.",
"-.-.. o & - - - - - - - - - - - - - - - - c S S S h i i -.-.-.-.-.",
"-.-.. o $ - - - - - - - - - - - - - - - - S S S S d i -.-.-.-.-.-.",
"-.-.-.o O - - - - - - - - - - - - - - - < S S S M i i -.-.-.-.-.-.",
"-.-.-.o o & - - - - - - - - - - - - - ; b S S S l i w -.-.-.-.-.-.",
"-.-.-.  o O - - - - - - - - - - - > z S S S S A a i -.-.-.-.-.-.-.",
"-.-.-.-.o * 5 - - - - - - - - - < S S S S S S f i e -.-.-.-.-.-.-.",
"-.-.-.-.-.K ` F 2 - - - - - - > S S S S S N | 0 8 -.-.-.-.-.-.-.-.",
"-.-.-.-.-.Q _ =.#.6 - - - - - > S S S S Z X.[ Q H -.-.-.-.-.-.-.-.",
"-.-.-.-.-.Q ! =.=.=.{ 7 3 - - - c S Z  .=.=.` Q D -.-.-.-.-.-.-.-.",
"-.-.-.-.-.Q Q =.=.=.=.=.=.=.=.=.=.=.=.=.=.=.^ Q -.-.-.-.-.-.-.-.-.",
"-.-.-.-.-.P Q $.=.=.=.=.=.=.=.=.=.=.=.=.=.=.Q Q -.-.-.-.-.-.-.-.-.",
"-.-.-.-.-.U Q @.=.=.=.=.=.=.=.=.=.=.=.=.=.@.Q L -.-.-.-.-.-.-.-.-.",
"-.-.-.-.-.Y Q o.=.=.=.=.=.=.=.=.=.=.=.=.=.o.Q H -.-.-.-.-.-.-.-.-.",
"-.-.-.-.-.-.Q ] =.=.=.=.=.=.=.=.=.=.=.=.=.] Q I -.-.-.-.-.-.-.-.-.",
"-.-.-.-.-.-.Q ( =.=.=.=.=.=.=.=.=.=.=.=.=.^ Q -.-.-.-.-.-.-.-.-.-.",
"-.-.-.-.-.-.E Q O.=.=.=.=.=.=.=.=.=.=.=.o.Q W -.-.-.-.-.-.-.-.-.-.",
"-.-.-.-.-.-.-.Q ! $.=.=.=.=.=.=.=.=.=.O.Q Q -.-.-.-.-.-.-.-.-.-.-.",
"-.-.-.-.-.-.-.R Q Q ' &.=.=.=.=.=.%.' Q Q R -.-.-.-.-.-.-.-.-.-.-.",
"-.-.-.-.-.-.-.-.-.W Q Q Q Q Q Q Q Q Q W -.-.-.-.-.-.-.-.-.-.-.-.-.",
"-.-.-.-.-.-.-.-.-.-.T Q Q Q Q Q Q Q T -.-.-.-.-.-.-.-.-.-.-.-.-.-."
};
